<?xml version="1.0" encoding="UTF-8"?>
    
        
            
        
    
    <svg xmlns:xlink="http://www.w3.org/1999/xlink"
     xmlns:xsi="http://www.w3.org/2001/XMLSchema-instance"
     xmlns="http://www.w3.org/2000/svg"
     width="800"
     height="1000"
     style="stroke:black;fill:black;font-family: sans-serif;font-size:12px;font-size-adjust:none;font-style:normal;font-variant:normal;font-weight:normal;line-height:normal;"
     viewBox="0 0 800 1000">
   <style type="text/css">
	rect.whitegray { fill: white; }
	g.selected * rect.whitegray { fill: lightgray; }
	</style>
   <image x="0" y="0" width="800" height="1000" xlink:href=""
          preserveAspectRatio="xMinYMin meet"/>
   <g id="layer0001">
      <rect x="60" y="50" width="560" height="150" style="stroke-width:1;" fill="white"/>
      <rect x="60" y="215" width="560" height="150" style="stroke-width:1;" fill="white"/>
      <rect x="90" y="85" width="520" height="35" style="stroke-width:1;" fill="white"/>
      <rect x="90" y="250" width="520" height="35" style="stroke-width:1;" fill="white"/>
      <rect x="90" y="125" width="520" height="35" style="stroke-width:1;" fill="white"/>
      <rect x="90" y="290" width="520" height="35" style="stroke-width:1;" fill="white"/>
      <rect x="90" y="125" width="520" height="35" style="stroke-width:1;" fill="white"/>
      <rect x="90" y="290" width="520" height="35" style="stroke-width:1;" fill="white"/>
      <a xlink:href="">
         <image x="545" y="95" width="16" height="16"
                xlink:href="icons/s_arrow_up.png"
                preserveAspectRatio="none"/>
      </a>
      <a xlink:href="">
         <image x="545" y="260" width="16" height="16"
                xlink:href="icons/s_arrow_up.png"
                preserveAspectRatio="none"/>
      </a>
      <a xlink:href="">
         <image x="545" y="135" width="16" height="16"
                xlink:href="icons/s_arrow_up.png"
                preserveAspectRatio="none"/>
      </a>
      <a xlink:href="">
         <image x="545" y="300" width="16" height="16"
                xlink:href="icons/s_arrow_up.png"
                preserveAspectRatio="none"/>
      </a>
      <a xlink:href="">
         <image x="565" y="95" width="16" height="16"
                xlink:href="icons/s_arrow_down.png"
                preserveAspectRatio="none"/>
      </a>
      <a xlink:href="">
         <image x="565" y="260" width="16" height="16"
                xlink:href="icons/s_arrow_down.png"
                preserveAspectRatio="none"/>
      </a>
      <a xlink:href="">
         <image x="565" y="135" width="16" height="16"
                xlink:href="icons/s_arrow_down.png"
                preserveAspectRatio="none"/>
      </a>
      <a xlink:href="">
         <image x="565" y="300" width="16" height="16"
                xlink:href="icons/s_arrow_down.png"
                preserveAspectRatio="none"/>
      </a>
      <a xlink:href="">
         <image x="585" y="95" width="16" height="16"
                xlink:href="icons/s_cross.png"
                preserveAspectRatio="none"/>
      </a>
      <a xlink:href="">
         <image x="585" y="260" width="16" height="16"
                xlink:href="icons/s_cross.png"
                preserveAspectRatio="none"/>
      </a>
      <a xlink:href="">
         <image x="585" y="135" width="16" height="16"
                xlink:href="icons/s_cross.png"
                preserveAspectRatio="none"/>
      </a>
      <a xlink:href="">
         <image x="585" y="300" width="16" height="16"
                xlink:href="icons/s_cross.png"
                preserveAspectRatio="none"/>
      </a>
      <a xlink:href="">
         <image x="555" y="60" width="16" height="16"
                xlink:href="icons/s_arrow_up.png"
                preserveAspectRatio="none"/>
      </a>
      <a xlink:href="">
         <image x="555" y="225" width="16" height="16"
                xlink:href="icons/s_arrow_up.png"
                preserveAspectRatio="none"/>
      </a>
      <a xlink:href="">
         <image x="575" y="60" width="16" height="16"
                xlink:href="icons/s_arrow_down.png"
                preserveAspectRatio="none"/>
      </a>
      <a xlink:href="">
         <image x="575" y="225" width="16" height="16"
                xlink:href="icons/s_arrow_down.png"
                preserveAspectRatio="none"/>
      </a>
      <a xlink:href="">
         <image x="595" y="60" width="16" height="16"
                xlink:href="icons/s_cross.png"
                preserveAspectRatio="none"/>
      </a>
      <a xlink:href="">
         <image x="595" y="225" width="16" height="16"
                xlink:href="icons/s_cross.png"
                preserveAspectRatio="none"/>
      </a>
      <a xlink:href="">
         <rect x="515" y="165" width="95" height="25" style="stroke-width:1;fill:lightgrey;"/>
         <text x="562.5" y="188" style="font-size:1em;stroke-width:0pt;" text-anchor="middle"
               xml:space="preserve">Tilføj</text>
      </a>
      <a xlink:href="">
         <rect x="515" y="330" width="95" height="25" style="stroke-width:1;fill:lightgrey;"/>
         <text x="562.5" y="353" style="font-size:1em;stroke-width:0pt;" text-anchor="middle"
               xml:space="preserve">Tilføj</text>
      </a>
      <a xlink:href="">
         <rect x="520" y="380" width="100" height="25" style="stroke-width:1;fill:lightgrey;"/>
         <text x="570" y="403" style="font-size:1em;stroke-width:0pt;" text-anchor="middle"
               xml:space="preserve">Tilføj</text>
      </a>
      <rect x="90" y="165" width="415" height="25" style="stroke-width:1;fill:white;"/>
      <line x1="95" y1="168" x2="95" y2="182" style="stroke-width:0.5;"/>
      <line x1="93" y1="168" x2="98" y2="168" style="stroke-width:0.5;"/>
      <line x1="93" y1="182" x2="98" y2="182" style="stroke-width:0.5;"/>
      <svg x="100" y="165" width="403" height="25" viewBox="100 165 403 25"
           overflow="hidden">
         <text x="100" y="181" style="font-size:em;stroke-width:0pt;" xml:space="preserve">Indtast ny undervaregruppe</text>
      </svg>
      <rect x="90" y="330" width="415" height="25" style="stroke-width:1;fill:white;"/>
      <line x1="95" y1="333" x2="95" y2="347" style="stroke-width:0.5;"/>
      <line x1="93" y1="333" x2="98" y2="333" style="stroke-width:0.5;"/>
      <line x1="93" y1="347" x2="98" y2="347" style="stroke-width:0.5;"/>
      <svg x="100" y="330" width="403" height="25" viewBox="100 330 403 25"
           overflow="hidden">
         <text x="100" y="346" style="font-size:em;stroke-width:0pt;" xml:space="preserve">Indtast ny undervaregruppe</text>
      </svg>
      <rect x="70" y="60" width="40" height="15" style="fill:white;opacity:0.01"/>
      <text x="70" y="60" style="font-size:1em;stroke-width:0pt;">
         <tspan x="70" y="72" xml:space="preserve">Køkken</tspan>
      </text>
      <rect x="70" y="225" width="17" height="15" style="fill:white;opacity:0.01"/>
      <text x="70" y="225" style="font-size:1em;stroke-width:0pt;">
         <tspan x="70" y="237" xml:space="preserve">Vin</tspan>
      </text>
      <rect x="100" y="95" width="18" height="15" style="fill:white;opacity:0.01"/>
      <text x="100" y="95" style="font-size:1em;stroke-width:0pt;">
         <tspan x="100" y="107" xml:space="preserve">Nat</tspan>
      </text>
      <rect x="100" y="260" width="22" height="15" style="fill:white;opacity:0.01"/>
      <text x="100" y="260" style="font-size:1em;stroke-width:0pt;">
         <tspan x="100" y="272" xml:space="preserve">Rød</tspan>
      </text>
      <a xlink:href="">
         <image x="545" y="95" width="16" height="16"
                xlink:href="icons/s_arrow_up.png"
                preserveAspectRatio="none"/>
      </a>
      <a xlink:href="">
         <image x="545" y="260" width="16" height="16"
                xlink:href="icons/s_arrow_up.png"
                preserveAspectRatio="none"/>
      </a>
      <a xlink:href="">
         <image x="565" y="95" width="16" height="16"
                xlink:href="icons/s_arrow_down.png"
                preserveAspectRatio="none"/>
      </a>
      <a xlink:href="">
         <image x="565" y="260" width="16" height="16"
                xlink:href="icons/s_arrow_down.png"
                preserveAspectRatio="none"/>
      </a>
      <a xlink:href="">
         <image x="585" y="95" width="16" height="16"
                xlink:href="icons/s_cross.png"
                preserveAspectRatio="none"/>
      </a>
      <a xlink:href="">
         <image x="585" y="260" width="16" height="16"
                xlink:href="icons/s_cross.png"
                preserveAspectRatio="none"/>
      </a>
      <rect x="100" y="135" width="22" height="18" style="fill:white;opacity:0.01"/>
      <text x="100" y="135" style="font-size:1em;stroke-width:0pt;">
         <tspan x="100" y="147" xml:space="preserve">Dag</tspan>
      </text>
      <rect x="100" y="300" width="17" height="15" style="fill:white;opacity:0.01"/>
      <text x="100" y="300" style="font-size:1em;stroke-width:0pt;">
         <tspan x="100" y="312" xml:space="preserve">Vin</tspan>
      </text>
      <rect x="60" y="380" width="450" height="25" style="stroke-width:1;fill:white;"/>
      <line x1="65" y1="383" x2="65" y2="397" style="stroke-width:0.5;"/>
      <line x1="63" y1="383" x2="68" y2="383" style="stroke-width:0.5;"/>
      <line x1="63" y1="397" x2="68" y2="397" style="stroke-width:0.5;"/>
      <svg x="70" y="380" width="438" height="25" viewBox="70 380 438 25"
           overflow="hidden">
         <text x="70" y="396" style="font-size:em;stroke-width:0pt;" xml:space="preserve">Indtast ny varegruppe</text>
      </svg>
   </g>
</svg>
    
        
        
    
    
    
